<svg width="15" height="15" viewBox="0 0 15 15" fill="none" xmlns="http://www.w3.org/2000/svg">
<g clip-path="url(#clip0_803_1100)">
<path d="M15 7.5C15 3.35686 11.6432 0 7.5 0C3.35686 0 0 3.35686 0 7.5C0 11.2433 2.74264 14.3461 6.32812 14.9093V9.66803H4.42288V7.5H6.32812V5.84758C6.32812 3.96805 7.44708 2.92984 9.16088 2.92984C9.98168 2.92984 10.8399 3.07621 10.8399 3.07621V4.92097H9.89392C8.9625 4.92097 8.67188 5.4992 8.67188 6.09224V7.5H10.7519L10.4192 9.66803H8.67188V14.9093C12.2573 14.3461 15 11.2433 15 7.5Z" fill="#37DB90"/>
</g>
<defs>
<clipPath id="clip0_803_1100">
<rect width="15" height="15" fill="white"/>
</clipPath>
</defs>
</svg>
