<svg width="30" height="30" viewBox="0 0 30 30" fill="none" xmlns="http://www.w3.org/2000/svg">
<path d="M1.169 6.00012C1.01627 5.99796 0.864631 6.02617 0.7229 6.08313C0.581169 6.14008 0.45217 6.22463 0.343401 6.33187C0.234632 6.43912 0.148262 6.56691 0.0893101 6.70782C0.0303581 6.84873 0 6.99995 0 7.1527C0 7.30545 0.0303581 7.45667 0.0893101 7.59758C0.148262 7.73849 0.234632 7.86628 0.343401 7.97352C0.45217 8.08076 0.581169 8.16532 0.7229 8.22227C0.864631 8.27923 1.01627 8.30744 1.169 8.30528H28.831C28.9837 8.30744 29.1354 8.27923 29.2771 8.22227C29.4188 8.16532 29.5478 8.08076 29.6566 7.97352C29.7654 7.86628 29.8517 7.73849 29.9107 7.59758C29.9696 7.45667 30 7.30545 30 7.1527C30 6.99995 29.9696 6.84873 29.9107 6.70782C29.8517 6.56691 29.7654 6.43912 29.6566 6.33187C29.5478 6.22463 29.4188 6.14008 29.2771 6.08313C29.1354 6.02617 28.9837 5.99796 28.831 6.00012H1.169ZM1.169 14.0682C1.01627 14.066 0.864631 14.0943 0.7229 14.1512C0.581169 14.2082 0.45217 14.2927 0.343401 14.4C0.234632 14.5072 0.148262 14.635 0.0893101 14.7759C0.0303581 14.9168 0 15.068 0 15.2208C0 15.3735 0.0303581 15.5248 0.0893101 15.6657C0.148262 15.8066 0.234632 15.9344 0.343401 16.0416C0.45217 16.1488 0.581169 16.2334 0.7229 16.2904C0.864631 16.3473 1.01627 16.3755 1.169 16.3734H28.831C28.9837 16.3755 29.1354 16.3473 29.2771 16.2904C29.4188 16.2334 29.5478 16.1488 29.6566 16.0416C29.7654 15.9344 29.8517 15.8066 29.9107 15.6657C29.9696 15.5248 30 15.3735 30 15.2208C30 15.068 29.9696 14.9168 29.9107 14.7759C29.8517 14.635 29.7654 14.5072 29.6566 14.4C29.5478 14.2927 29.4188 14.2082 29.2771 14.1512C29.1354 14.0943 28.9837 14.066 28.831 14.0682H1.169ZM1.169 22.1363C1.01627 22.1341 0.864631 22.1623 0.7229 22.2193C0.581169 22.2762 0.45217 22.3608 0.343401 22.468C0.234632 22.5753 0.148262 22.7031 0.0893101 22.844C0.0303581 22.9849 0 23.1361 0 23.2889C0 23.4416 0.0303581 23.5928 0.0893101 23.7337C0.148262 23.8747 0.234632 24.0025 0.343401 24.1097C0.45217 24.2169 0.581169 24.3015 0.7229 24.3584C0.864631 24.4154 1.01627 24.4436 1.169 24.4415H28.831C28.9837 24.4436 29.1354 24.4154 29.2771 24.3584C29.4188 24.3015 29.5478 24.2169 29.6566 24.1097C29.7654 24.0025 29.8517 23.8747 29.9107 23.7337C29.9696 23.5928 30 23.4416 30 23.2889C30 23.1361 29.9696 22.9849 29.9107 22.844C29.8517 22.7031 29.7654 22.5753 29.6566 22.468C29.5478 22.3608 29.4188 22.2762 29.2771 22.2193C29.1354 22.1623 28.9837 22.1341 28.831 22.1363H1.169Z" fill="#A97DFA">
</svg>
