<svg width="30" height="30" viewBox="0 0 30 30" fill="none" xmlns="http://www.w3.org/2000/svg">
<path fill-rule="evenodd" clip-rule="evenodd" d="M15 30C23.2843 30 30 23.2843 30 15C30 6.71573 23.2843 0 15 0C6.71573 0 0 6.71573 0 15C0 23.2843 6.71573 30 15 30ZM10.0603 18.6465L15 13.7068L19.9397 18.6465C20.411 19.1178 21.1752 19.1178 21.6465 18.6465C22.1178 18.1751 22.1178 17.411 21.6465 16.9396L15.8534 11.1465C15.3821 10.6752 14.6179 10.6752 14.1466 11.1465L8.35349 16.9396C7.88217 17.411 7.88217 18.1751 8.35349 18.6465C8.8248 19.1178 9.58899 19.1178 10.0603 18.6465Z" fill="#A97DFA"/>
</svg>
