<svg width="15" height="15" viewBox="0 0 15 15" fill="none" xmlns="http://www.w3.org/2000/svg">
<path d="M13.4582 4.31218C13.4677 4.45754 13.4677 4.60293 13.4677 4.74828C13.4677 9.18182 10.3744 14.2903 4.72083 14.2903C2.97907 14.2903 1.36105 13.74 0 12.7847C0.247471 12.8159 0.485393 12.8263 0.742386 12.8263C2.17955 12.8263 3.50255 12.2968 4.55902 11.3934C3.20749 11.3623 2.07488 10.3967 1.68464 9.0676C1.87501 9.09872 2.06535 9.1195 2.26524 9.1195C2.54125 9.1195 2.81729 9.07795 3.07425 9.00535C1.66562 8.6938 0.609114 7.34403 0.609114 5.7139V5.67238C1.01837 5.92158 1.49429 6.07732 1.9987 6.09806C1.17065 5.49583 0.628156 4.46793 0.628156 3.30501C0.628156 2.68204 0.780412 2.11098 1.04693 1.61258C2.56027 3.64766 4.83502 4.97667 7.38578 5.12205C7.3382 4.87286 7.30963 4.61331 7.30963 4.35373C7.30963 2.50553 8.6802 1 10.3839 1C11.269 1 12.0685 1.40494 12.6301 2.05907C13.3249 1.91372 13.9911 1.63336 14.5812 1.2492C14.3528 2.02794 13.8674 2.68207 13.2297 3.09737C13.8484 3.02472 14.448 2.83779 15 2.57823C14.5813 3.24273 14.0578 3.83454 13.4582 4.31218Z" fill="#37DB90"/>
</svg>
